<?xml version="1.0" standalone="no"?>
<!DOCTYPE svg PUBLIC "-//W3C//DTD SVG 20010904//EN"
 "http://www.w3.org/TR/2001/REC-SVG-20010904/DTD/svg10.dtd">
<svg version="1.0" xmlns="http://www.w3.org/2000/svg"
 width="300.000000pt" height="300.000000pt" viewBox="0 0 300.000000 300.000000"
 preserveAspectRatio="xMidYMid meet">
<metadata>
Created by potrace 1.11, written by Peter Selinger 2001-2013
</metadata>
<g transform="translate(0.000000,300.000000) scale(0.100000,-0.100000)"
fill="#000000" stroke="none">
<path d="M0 1500 l0 -1500 1500 0 1500 0 0 1500 0 1500 -1500 0 -1500 0 0
-1500z m2850 0 l0 -1350 -1350 0 -1350 0 0 1350 0 1350 1350 0 1350 0 0 -1350z"/>
<path d="M499 2163 c10 -27 71 -185 136 -352 l117 -303 -134 -377 -134 -376
104 -3 c58 -1 106 -1 108 1 2 2 51 140 109 307 58 167 107 305 109 307 3 3 21
-47 157 -439 l61 -178 104 0 c57 0 104 3 104 8 0 4 -59 175 -131 380 l-132
373 118 302 c64 166 126 323 136 350 l19 47 -109 0 -108 0 -108 -285 c-59
-157 -109 -285 -110 -285 -1 0 -51 128 -110 285 l-108 285 -108 0 -109 0 19
-47z"/>
<path d="M1955 2188 c-33 -140 -315 -1414 -315 -1424 0 -11 23 -14 105 -14
l104 0 10 38 c5 20 24 103 42 185 l33 147 136 0 136 0 40 -182 40 -183 107 -3
c73 -2 107 1 107 8 0 10 -298 1355 -316 1426 -6 23 -9 24 -115 24 -104 0 -109
-1 -114 -22z m175 -589 c27 -156 50 -292 50 -301 0 -16 -12 -18 -106 -18 -105
0 -106 0 -101 23 3 12 27 149 54 304 26 155 49 280 51 279 1 -2 25 -131 52
-287z"/>
</g>
</svg>
