<?xml version="1.0" encoding="UTF-8"?>
<svg width="55px" height="60px" viewBox="0 0 55 60" version="1.1" xmlns="http://www.w3.org/2000/svg" xmlns:xlink="http://www.w3.org/1999/xlink">
    <!-- Generator: Sketch 46.1 (44463) - http://www.bohemiancoding.com/sketch -->
    <title>Currently With Section</title>
    <desc>Created with Sketch.</desc>
    <defs></defs>
    <g id="Home" stroke="none" stroke-width="1" fill="none" fill-rule="evenodd">
        <g id="Desktop" transform="translate(-1195.000000, -26.000000)" fill="#F05637">
            <g id="Currently-With-Section" transform="translate(1195.000000, 26.000000)">
                <g id="logo">
                    <path d="M27.4967145,15.6232057 L0,0 L0,43.7267757 L27.4967145,60 L55,43.7267757 L55,0 L27.4967145,15.6232057 Z M30.8113184,17.50826 L51.6952671,5.64216429 L51.6952671,29.3776071 L30.8113184,17.50826 Z M3.30144737,5.64216429 L24.1853961,17.50826 L3.30144737,29.3743571 L3.30144737,5.64216429 Z M20.1572395,51.8520129 L12.0614566,28.1653214 L27.4967145,19.3868157 L42.9385434,28.1653214 L34.8427605,51.8487629 L27.4967145,56.1973886 L20.1572395,51.8520129 Z M45.8585368,29.82287 L51.6952671,33.1412171 L51.6952671,41.8774714 L39.2129013,49.2649371 L45.8585368,29.82287 Z M3.30144737,41.8774714 L3.30144737,33.1412171 L9.13816316,29.82287 L15.7903842,49.2681871 L3.30144737,41.8774714 Z" id="Shape"></path>
                </g>
            </g>
        </g>
    </g>
</svg>