<?xml version="1.0" encoding="UTF-8"?>
<svg width="186px" height="101px" viewBox="0 0 186 101" version="1.1" xmlns="http://www.w3.org/2000/svg" xmlns:xlink="http://www.w3.org/1999/xlink">
    <!-- Generator: Sketch 46.1 (44463) - http://www.bohemiancoding.com/sketch -->
    <title>logo</title>
    <desc>Created with Sketch.</desc>
    <defs>
        <path d="M20.0843744,76 L30.0218744,46.96875 L20.0218744,20 L28.0218744,20 L36.0218744,42 L44.0218744,20 L52.0218744,20 L42.0218744,46.84375 L51.8968744,76 L43.9593744,76 L36.0218744,52 L28.0843744,76 L20.0843744,76 Z M74.8406248,56 L82.8406248,56 L78.8406248,32 L74.8406248,56 Z M62.8406248,76 L74.8406248,20 L82.8406248,20 L94.8406248,76 L86.8406248,76 L83.8406248,62 L73.8406248,62 L70.8406248,76 L62.8406248,76 Z M116.284375,76 L104.284375,20 L112.284375,20 L118.190625,50 L120.253125,64 L122.378125,50 L128.284375,20 L136.284375,20 L124.284375,76 L116.284375,76 Z M180,-6.76864949e-15 L185.5,-7.10542736e-15 L185.5,97 L180,97 L168,97 L168,91 L179.5,91 L179.5,6 L6.5,6 L6.5,91 L126,91 L126,97 L6,97 L0.5,97 L0.5,-6.73803332e-15 L6,-7.07481119e-15 L180,0 Z M150.634376,76 L150.634376,20 L158.634376,20 L158.634376,76 L150.634376,76 Z M132.164355,100 L134.789355,87.75 L136.539355,87.75 L139.164355,100 L137.414355,100 L136.758105,96.9375 L134.570605,96.9375 L133.914355,100 L132.164355,100 Z M143.14873,100 L143.14873,87.75 L144.46123,87.75 L147.52373,95.3242188 L147.52373,87.75 L149.27373,87.75 L149.27373,100 L148.02959,100 L144.89873,91.8515625 L144.89873,100 L143.14873,100 Z M157.30498,100.123047 C156.744431,100.123047 156.257945,100.043295 155.845508,99.8837891 C155.433071,99.7242831 155.096974,99.5078139 154.837207,99.234375 C154.57744,98.9609361 154.370085,98.6123068 154.215137,98.1884766 C154.060188,97.7646463 153.953093,97.3180362 153.893847,96.8486328 C153.834602,96.3792294 153.80498,95.8391958 153.80498,95.2285156 L153.80498,92.125 C153.80498,89.1262871 154.994422,87.6269531 157.37334,87.6269531 C157.943004,87.6269531 158.437465,87.7124015 158.856738,87.8833008 C159.276011,88.0542001 159.615526,88.3037093 159.875293,88.6318359 C160.13506,88.9599626 160.331021,89.3439106 160.463183,89.7836914 C160.595346,90.2234723 160.672819,90.7327445 160.695605,91.3115234 C160.700163,91.3935551 160.702441,91.5188794 160.702441,91.6875 L158.952441,91.6875 L158.952441,91.3183594 C158.947884,91.0312486 158.933073,90.784018 158.908008,90.5766602 C158.882942,90.3693023 158.83737,90.1653656 158.771289,89.9648438 C158.705208,89.7643219 158.615202,89.6014004 158.501269,89.4760742 C158.387336,89.3507481 158.235808,89.2504887 158.046679,89.175293 C157.857551,89.1000973 157.633107,89.0625 157.37334,89.0625 C157.017869,89.0625 156.71823,89.1274408 156.474414,89.2573242 C156.230598,89.3872077 156.04375,89.5763334 155.913867,89.824707 C155.783984,90.0730807 155.691699,90.3465154 155.637012,90.6450195 C155.582324,90.9435236 155.55498,91.2910136 155.55498,91.6875 L155.55498,95.625 C155.55498,95.9166681 155.564095,96.1798491 155.582324,96.4145508 C155.600553,96.6492525 155.631315,96.8885079 155.674609,97.1323242 C155.717904,97.3761405 155.781705,97.5869132 155.866015,97.7646484 C155.950326,97.9423837 156.055142,98.1030266 156.180469,98.246582 C156.305795,98.3901374 156.46302,98.4995113 156.652148,98.574707 C156.841277,98.6499027 157.058885,98.6875 157.30498,98.6875 C157.596648,98.6875 157.849576,98.6305344 158.063769,98.5166016 C158.277963,98.4026687 158.447721,98.2556975 158.573047,98.0756836 C158.698373,97.8956697 158.797493,97.6666681 158.87041,97.3886719 C158.943327,97.1106757 158.992317,96.8349623 159.017383,96.5615234 C159.042448,96.2880846 159.05498,95.9759132 159.05498,95.625 L159.05498,95.1875 L157.30498,95.1875 L157.30498,93.8886719 L160.80498,93.8886719 L160.80498,100 L159.49248,100 L159.05498,98.6875 C158.713182,99.644536 158.129854,100.123047 157.30498,100.123047 Z" id="path-1"></path>
    </defs>
    <g id="Home" stroke="none" stroke-width="1" fill="none" fill-rule="evenodd">
        <g id="Desktop" transform="translate(-31.000000, -31.000000)">
            <g id="logo" transform="translate(24.000000, 26.000000)">
                <g id="color/downy" transform="translate(7.000000, 5.000000)">
                    <mask id="mask-2" fill="white">
                        <use xlink:href="#path-1"></use>
                    </mask>
                    <use id="Mask" fill="#FFFFFF" xlink:href="#path-1"></use>
                    <g id="color/white" mask="url(#mask-2)" fill="#FFFFFF">
                        <g transform="translate(-7.000000, -3.000000)" id="Rectangle-3">
                            <rect x="0" y="0" width="202" height="112"></rect>
                        </g>
                    </g>
                </g>
            </g>
        </g>
    </g>
</svg>